<svg fill="#01395A" xmlns="http://www.w3.org/2000/svg" viewBox="0 0 64 80" x="0px" y="0px"><title>1</title><path d="M53.55,30.543c7.0213-4.34982,4.00219-15.33807-4.38119-15.38376a8.33052,8.33052,0,0,0-8.25913,7.34842,3.03511,3.03511,0,0,0-3.3735,2.99924l0,4.22329-.043-.028a5.09111,5.09111,0,0,1-2.31445-4.27149V9.668a1.00012,1.00012,0,0,0-2,.00006V25.43066a7.59609,7.59609,0,0,0,4.35754,6.68521l-.00012,2.1746-4.69922-3.39594a1.00189,1.00189,0,0,0-1.14843-.0166l-5.22461,3.55572V32.11627a7.59391,7.59391,0,0,0,4.35732-6.68569L30.82129,9.668a1.00012,1.00012,0,0,0-2,.00006V25.43066a5.09241,5.09241,0,0,1-2.31152,4.27051c-.124.22256-.00692-4.24014-.046-4.19628a3.02379,3.02379,0,0,0-1.32609-2.501,2.98683,2.98683,0,0,0-2.7754-.31446C9.45215,27.7832,3.29492,37.18066,4.06249,50.62012c.30637,5.49175,8.13433,6.12006,10.95114,2.20981a1.84749,1.84749,0,0,1,1.7227-.659c5.515.82963,9.12587-1.05807,9.72756-5.18749l0-10.12983,5.76953-3.92682,5.30273,3.83166V46.98828c.60212,4.13472,4.20838,6.02378,9.73436,5.18262a1.84651,1.84651,0,0,1,1.72072.6543A6.56792,6.56792,0,0,0,54.29,55.333a5.16127,5.16127,0,0,0,5.64737-4.715C60.40161,42.47168,58.253,35.72552,53.55,30.543ZM17.03418,50.19238a3.87506,3.87506,0,0,0-3.57227,1.376c-1.59649,2.39533-7.12524,2.64992-7.40341-1.0616-.71182-12.48235,5.0206-21.21477,17.03818-25.956a1.01869,1.01869,0,0,1,1.36717.95412l0,8.15135c-1.27118.6012-2.55011,1.24261-3.80786,1.97955-.22022-.10138-.45148-.21765-.70972-.35455A10.93753,10.93753,0,0,0,14.876,33.79492a1,1,0,0,0-.08985,1.998,8.61326,8.61326,0,0,1,3.91156,1.09143c-.53845.374-1.07043.76977-1.59186,1.19629a22.94908,22.94908,0,0,0-3.82214,3.99188C12.899,42.05194,7.509,41.78063,8.164,43.90031a1.00265,1.00265,0,0,0,1.27935.60359,8.45052,8.45052,0,0,1,2.51752-.45568,1.06369,1.06369,0,0,0,.19151,1.63733,1.00084,1.00084,0,0,0,1.36812-.3584,20.57523,20.57523,0,0,1,3.49316-4.46259,11.4,11.4,0,0,1-.1084,2.30634.99976.99976,0,1,0,1.97852.28906,11.38556,11.38556,0,0,0-.08807-4.15289A33.16667,33.16667,0,0,1,24.46387,35.886V46.89063C23.77051,50.4375,20.04785,50.64746,17.03418,50.19238ZM49.169,17.15918a6.32915,6.32915,0,0,1,6.32226,6.32227c-.25729,8.1613-11.94859,8.42328-12.62493.36662A6.31988,6.31988,0,0,1,49.169,17.15918Zm8.77246,33.34766c-.27735,3.70907-5.80351,3.46641-7.40028,1.0546a3.8812,3.8812,0,0,0-3.5714-1.3671c-3.01758.459-6.74121.252-7.4336-3.29883V35.7641a33.70161,33.70161,0,0,1,5.679,3.49228,11.31992,11.31992,0,0,0-.0989,4.20358.99976.99976,0,0,0,1.97852-.28906,11.33422,11.33422,0,0,1-.10645-2.34747,21.323,21.323,0,0,1,3.49121,4.50372,1.01659,1.01659,0,1,0,1.561-1.27863,8.4351,8.4351,0,0,1,2.51717.45539,1.00263,1.00263,0,0,0,1.27929-.60352C56.48664,41.7761,51.1,42.053,50.72168,42.07176A23.26891,23.26891,0,0,0,45.353,36.858a8.58617,8.58617,0,0,1,3.86084-1.065A1,1,0,0,0,50.168,34.749c-.19929-2.36538-5.89794.334-6.11519.53317-.22588.11948-.433.22684-.62932.32059-1.22229-.73352-2.51776-1.40973-3.88733-2.06231V25.50684a1.0158,1.0158,0,0,1,.45313-.85254.98064.98064,0,0,1,.93664-.09333A8.315,8.315,0,0,0,51.632,31.4303C56.25989,36.26245,58.38745,42.67322,57.94141,50.50684Z"/><path d="M49.169,24.44727a.99943.99943,0,0,0,1-1V19.70508a1,1,0,0,0-2,0v3.74219A.99942.99942,0,0,0,49.169,24.44727Z"/><path d="M49.16919,25.35229a.95269.95269,0,0,0,.00006,1.905A.95269.95269,0,0,0,49.16919,25.35229Z"/></svg>