<svg fill="#0057B8" xmlns="http://www.w3.org/2000/svg" xmlns:xlink="http://www.w3.org/1999/xlink" version="1.1" x="0px" y="0px" viewBox="0 0 60 75" style="enable-background:new 0 0 60 60;" xml:space="preserve"><g><g><path d="M29.58,54c-0.54,0-0.99-0.44-1-0.98c-0.03-1.94,0.3-3.76,0.98-5.4c0.95-2.28,3.28-3.8,5.81-3.72    c0.34,0.01,0.69,0.02,1.05,0.03c1.06,0.04,2.17,0.08,3.24-0.03c1.01-0.1,1.81-0.99,1.81-2.02V41h-2.43c-0.55,0-1-0.45-1-1    c0-2.63,2.05-4.79,4.64-4.97l-0.11-0.32c-0.06-0.18-0.07-0.36-0.03-0.54l0.33-1.49c0.07-0.33,0.31-0.6,0.63-0.72l2.37-0.87    l-3.72-4.29c-0.51-0.58-0.76-1.33-0.71-2.1l0.34-5.21c0-0.02-0.01-0.04-0.01-0.05c-0.7-5.49-5.07-9.89-10.89-10.96    C22.3,6.9,15.4,9.32,11.47,15.29c-1.73,2.7-2.55,5.51-2.44,8.35c0.1,2.41,1.03,4.9,2.69,7.22c2.91,4.08,4.25,7.04,4.33,9.59    c0.55,2.9-0.01,5.98-1.71,9.39c-0.25,0.49-0.85,0.7-1.34,0.45c-0.5-0.25-0.7-0.85-0.45-1.34c1.51-3.04,2.01-5.73,1.52-8.2    c-0.01-0.06-0.02-0.11-0.02-0.17c-0.05-2.11-1.31-4.83-3.96-8.56c-1.88-2.63-2.93-5.5-3.05-8.3C6.9,20.47,7.83,17.26,9.8,14.2    c4.41-6.69,12.01-9.42,21.44-7.7c6.66,1.22,11.68,6.3,12.51,12.63c0.02,0.08,0.04,0.19,0.04,0.31l-0.35,5.38    c-0.02,0.24,0.06,0.48,0.22,0.66l3.88,4.48c0.39,0.45,0.54,1.07,0.39,1.65c-0.15,0.58-0.58,1.05-1.14,1.26l-2.09,0.77l-0.15,0.68    l0.48,1.37c0.15,0.44-0.02,0.93-0.41,1.18c-0.16,0.1-0.35,0.15-0.53,0.15h-1.06c-1.29,0-2.39,0.83-2.8,1.98h2.26    c0.55,0,1,0.45,1,1v1.88c0,2.08-1.55,3.8-3.61,4.01c-1.21,0.12-2.38,0.08-3.51,0.04c-0.35-0.01-0.69-0.02-1.02-0.03    c-1.72-0.06-3.28,0.96-3.92,2.48c-0.57,1.38-0.85,2.93-0.82,4.6c0.01,0.55-0.43,1.01-0.98,1.02C29.59,54,29.58,54,29.58,54z"/></g><g><path d="M14.65,39.26c-0.47,0-0.88-0.33-0.98-0.8c-0.11-0.54,0.24-1.07,0.78-1.18c1.78-0.36,3.03-1.96,3.77-3.25    c0.42-0.74,0.42-1.64-0.02-2.36l-0.9-1.49c-0.94-1.54-0.65-3.55,0.68-4.77c1.08-0.99,2.66-1.28,4.01-0.72l0.96,0.39    c0.99,0.4,2.11,0.08,2.73-0.78l4.89-6.72c1.03-1.41,2.78-2.09,4.57-1.77c2.68,0.48,6.52-0.55,6.56-0.56    c0.54-0.15,1.08,0.17,1.23,0.7c0.15,0.53-0.17,1.08-0.7,1.23c-0.17,0.05-4.3,1.16-7.44,0.6c-1.03-0.19-2.03,0.19-2.6,0.98    L27.3,25.5c-1.17,1.61-3.27,2.21-5.11,1.45l-0.96-0.39c-0.65-0.26-1.39-0.13-1.9,0.34c-0.63,0.58-0.76,1.53-0.32,2.26l0.9,1.49    c0.81,1.34,0.83,3.02,0.04,4.39c-0.94,1.64-2.6,3.7-5.11,4.21C14.78,39.26,14.71,39.26,14.65,39.26z"/></g><g><path d="M51.97,45.5c-0.13,0-0.26-0.02-0.38-0.08l-4-1.67c-0.51-0.21-0.75-0.8-0.54-1.31c0.21-0.51,0.8-0.75,1.31-0.54l4,1.67    c0.51,0.21,0.75,0.8,0.54,1.31C52.73,45.27,52.36,45.5,51.97,45.5z"/></g><g><path d="M47.97,37.17c-0.39,0-0.76-0.23-0.92-0.62c-0.21-0.51,0.03-1.1,0.54-1.31l4-1.67c0.51-0.21,1.09,0.03,1.31,0.54    c0.21,0.51-0.03,1.1-0.54,1.31l-4,1.67C48.23,37.15,48.1,37.17,47.97,37.17z"/></g><g><path d="M51.97,40.5h-4c-0.55,0-1-0.45-1-1s0.45-1,1-1h4c0.55,0,1,0.45,1,1S52.52,40.5,51.97,40.5z"/></g></g></svg>