<svg fill="#fff" xmlns="http://www.w3.org/2000/svg" version="1.1" viewBox="-5.0 -10.0 110.0 135.0">
 <g>
  <path d="m87.328 18.281-5.6094-5.6094c-1.7969-1.7969-4.1719-2.7812-6.7031-2.7812s-4.9219 0.98438-6.7031 2.7812l-29.547 29.547c-4.7344 4.7344-8.3594 10.312-10.766 16.562-2.25 5.8438-5.625 11.047-10.047 15.469l-8.5156 8.5156c-1.0469 1.0469-1.625 2.4375-1.625 3.9062s0.57812 2.8594 1.625 3.9062 2.4375 1.625 3.9062 1.625 2.8594-0.57812 3.9062-1.625l8.5156-8.5156c4.4219-4.4219 9.625-7.8125 15.469-10.047 6.25-2.4062 11.828-6.0312 16.562-10.766l29.547-29.547c3.7031-3.7031 3.7031-9.7188 0-13.422zm-72.297 70.078c-0.90625 0.90625-2.4844 0.90625-3.3906 0-0.45312-0.45312-0.70312-1.0625-0.70312-1.7031s0.25-1.25 0.70312-1.7031l3.0938-3.0938 3.3906 3.3906-3.0938 3.0938zm40.547-29.328c-4.4219 4.4219-9.625 7.8125-15.469 10.047-6.25 2.4062-11.828 6.0312-16.562 10.766l-3.2031 3.2031-3.3906-3.3906 3.2031-3.2031c4.7344-4.7344 8.3594-10.312 10.766-16.562 2.25-5.8438 5.625-11.047 10.047-15.469l27.031-27.031 14.609 14.609zm29.547-29.547-0.29688 0.29688-14.609-14.609 0.29688-0.29688c1.2031-1.2031 2.7969-1.8594 4.5-1.8594s3.2969 0.65625 4.5 1.8594l5.6094 5.6094c2.4844 2.4844 2.4844 6.5156 0 9z"/>
  <path d="m73.906 30.078-3.9844-3.9844c-1.7656-1.7656-4.8594-1.7656-6.625 0l-15.203 15.203c-1.8281 1.8281-1.8281 4.7969 0 6.625l3.9844 3.9844c0.89062 0.89062 2.0625 1.375 3.3125 1.375s2.4375-0.48438 3.3125-1.375l15.203-15.203c1.8281-1.8281 1.8281-4.7969 0-6.625zm-2.2031 4.4219-15.203 15.203c-0.57812 0.59375-1.6094 0.59375-2.2031 0l-3.9844-3.9844c-0.60938-0.60938-0.60938-1.5938 0-2.2031l15.203-15.203c0.29688-0.29688 0.6875-0.45312 1.1094-0.45312s0.8125 0.15625 1.1094 0.45312l3.9844 3.9844c0.60938 0.60938 0.60938 1.5938 0 2.2031z"/>
  <path d="m64.094 33.703-1.4062 1.4062c-0.60938 0.60938-0.60938 1.5938 0 2.2031 0.3125 0.29688 0.70312 0.45312 1.1094 0.45312s0.79688-0.15625 1.1094-0.45312l1.4062-1.4062c0.60938-0.60938 0.60938-1.5938 0-2.2031s-1.5938-0.60938-2.2031 0z"/>
  <path d="m57.094 40.703-1.4062 1.4062c-0.60938 0.60938-0.60938 1.5938 0 2.2031 0.3125 0.29688 0.70312 0.45312 1.1094 0.45312s0.79688-0.15625 1.1094-0.45312l1.4062-1.4062c0.60938-0.60938 0.60938-1.5938 0-2.2031s-1.6094-0.60938-2.2031 0z"/>
  <path d="m31.359 30.75c0.85938 0 1.5625-0.70312 1.5625-1.5625 0-4.875 1.8906-9.4688 5.3438-12.906s8.0312-5.3438 12.906-5.3438c0.85938 0 1.5625-0.70312 1.5625-1.5625s-0.70312-1.5625-1.5625-1.5625c-5.7188 0-11.078 2.2188-15.125 6.2656-4.0312 4.0312-6.2656 9.4062-6.2656 15.125 0 0.85938 0.70312 1.5625 1.5625 1.5625z"/>
  <path d="m51.188 17.703c-3.0625 0.015625-5.9531 1.2188-8.1094 3.375s-3.3594 5.0312-3.375 8.1094c0 0.85938 0.6875 1.5625 1.5469 1.5781 0.85938 0 1.5625-0.6875 1.5625-1.5469 0-2.2344 0.89062-4.3438 2.4531-5.9062s3.6719-2.4375 5.9062-2.4531c0.85938 0 1.5625-0.70312 1.5469-1.5781 0-0.85938-0.70312-1.5469-1.5625-1.5469z"/>
  <path d="m90.625 47.25c-0.85938 0-1.5625 0.70312-1.5625 1.5625 0 4.875-1.8906 9.4688-5.3438 12.906s-8.0312 5.3438-12.906 5.3438c-0.85938 0-1.5625 0.70312-1.5625 1.5625s0.70312 1.5625 1.5625 1.5625c5.7188 0 11.078-2.2188 15.125-6.2656 4.0312-4.0312 6.2656-9.4062 6.2656-15.125 0-0.85938-0.70312-1.5625-1.5625-1.5625z"/>
  <path d="m80.734 47.25c-0.85938 0-1.5625 0.6875-1.5625 1.5469 0 2.2344-0.89062 4.3438-2.4531 5.9062-1.5781 1.5781-3.6719 2.4375-5.9062 2.4531-0.85938 0-1.5625 0.70312-1.5469 1.5781 0 0.85938 0.70312 1.5469 1.5625 1.5469 3.0625-0.015625 5.9531-1.2188 8.1094-3.375s3.3594-5.0312 3.375-8.1094c0-0.85938-0.6875-1.5625-1.5469-1.5781z"/>
 </g>
</svg>