<svg fill="#fff"  xmlns="http://www.w3.org/2000/svg" version="1.1" viewBox="-5.0 -10.0 110.0 135.0">
 <path d="m29.395 23.602c0.085938-0.73047 0.75-1.2539 1.4805-1.168 3.5625 0.42578 6.3086 0.26172 8.7344 0.11719 1.2695-0.074219 2.4648-0.14453 3.6602-0.12891 0.73438 0.011719 1.3242 0.61719 1.3125 1.3555-0.011719 0.73047-0.60547 1.3125-1.332 1.3125h-0.019531c-1.0938-0.015625-2.2461 0.050781-3.4609 0.125-1.3047 0.078125-2.6992 0.16016-4.2656 0.16016-1.4727 0-3.0977-0.074219-4.9414-0.29297-0.73047-0.085937-1.2539-0.74609-1.168-1.4805zm14.086 10.113c0 0.35547 0.14062 0.69141 0.39062 0.94141l2.0898 2.0898c0.26172 0.26172 0.60156 0.39062 0.94141 0.39062s0.68359-0.12891 0.94141-0.39062c0.51953-0.51953 0.51953-1.3672 0-1.8867l-1.1445-1.1445 1.1445-1.1445c0.51953-0.51953 0.51953-1.3672 0-1.8867-0.51953-0.51953-1.3633-0.51953-1.8867 0l-2.0898 2.0898c-0.25 0.24609-0.38672 0.58594-0.38672 0.94141zm55.465 8.0273c0.039063 0.54687-0.26172 1.0586-0.75391 1.2969l-11.57 5.5469 3.8789 3.9414c0.33594 0.33984 0.46484 0.83594 0.33203 1.2969-0.12891 0.46094-0.5 0.81641-0.96484 0.92969l-16.426 4.0469c-0.10547 0.027344-0.21484 0.039063-0.32031 0.039063-0.50391 0-0.98047-0.28906-1.2031-0.76172-0.27344-0.57031-0.10547-1.2539 0.40234-1.6367l5.6406-4.2539-3.7734-2.5508c-0.35938-0.24219-0.57422-0.64062-0.58594-1.0742-0.007812-0.42969 0.19141-0.84375 0.53516-1.1016l13.074-9.7422c0.34375-0.25391 0.78906-0.33203 1.1992-0.20312l9.6055 3.043c0.52344 0.16797 0.89062 0.63672 0.92969 1.1836zm-4.9414 0.34766-5.7422-1.8203-11.02 8.2109 3.7617 2.543c0.35547 0.24219 0.57422 0.64062 0.58594 1.0703 0.011718 0.42969-0.1875 0.83984-0.53125 1.0977l-1.9414 1.4648 7.8438-1.9297-3.5469-3.6016c-0.30078-0.30859-0.4375-0.74219-0.36328-1.1641 0.074219-0.42578 0.34766-0.78516 0.73828-0.97266zm-28.793 2.8867c0.10547 0.023438 0.21094 0.039063 0.3125 0.039063 0.60156 0 1.1484-0.41016 1.293-1.0234l1.0664-4.4336 1.8359 1.5312c0.36719 0.30859 0.87109 0.39453 1.3203 0.22266 0.44922-0.16797 0.77344-0.56641 0.84766-1.0391l1.0117-6.3555c0.11719-0.72656-0.37891-1.4102-1.1055-1.5273-0.72656-0.11719-1.4102 0.37891-1.5273 1.1055l-0.64453 4.0391-1.6836-1.4023c-0.35547-0.29687-0.83594-0.38672-1.2734-0.24219s-0.76953 0.50391-0.875 0.95312l-1.5625 6.5234c-0.17187 0.71875 0.26953 1.4375 0.98438 1.6094zm-23.078 39.355c-0.73828 0-1.332 0.59766-1.332 1.332v0.75391c0 0.73828 0.59766 1.332 1.332 1.332 0.73828 0 1.332-0.59766 1.332-1.332v-0.75391c0.003906-0.73437-0.59375-1.332-1.332-1.332zm28.77-15.539c2.7969 6.4688 4.1328 14.277 3.9688 23.207-0.015625 0.72656-0.60547 1.3086-1.332 1.3086h-44.797c-2.7188 0.15234-5.4609 0.10156-8.1094-0.71875-2.8594 1.0508-5.2891 1.4688-7.3477 1.4688-3.6836 0-6.168-1.3398-7.7734-2.7773-4.3633-3.9102-5.6406-11.672-3.3281-20.262 1.2734-4.7266 3.8945-9.1562 7.582-12.805 3.1484-3.1172 7.0078-5.6172 11.23-7.3008-0.18359-0.50391-0.32031-1.0117-0.38672-1.5156-0.007813-0.0625-0.011719-0.12891-0.011719-0.19531 0.003906-0.19531 0.011719-0.39062 0.027344-0.58203-1.7656-2.0781-3.0586-4.5039-3.9297-7.3672-1.6758-0.64062-2.9844-2.5391-4.0039-5.8047-0.86719-2.7812-1.4844-6.5391-1.7031-10.309-0.22656-3.9375 0.015625-6.3906 0.71875-7.293 1.6211-2.0742 3.5742-2.6523 4.9297-2.7734 0.83594-0.074219 1.6992 0.011719 2.5117 0.22656 4.0547-5.8828 10.645-9.3672 17.836-9.3672 7.1953 0 13.781 3.4805 17.836 9.3672 0.80859-0.21484 1.6719-0.30078 2.5117-0.22656 1.3555 0.12109 3.3086 0.69922 4.9297 2.7734 0.70312 0.90234 0.94531 3.3555 0.71875 7.293-0.21875 3.7734-0.83984 7.5312-1.7031 10.309-1.0195 3.2734-2.3281 5.1758-4.0039 5.8125-0.73047 2.3984-1.7539 4.4805-3.1055 6.3164 0.097656 0.51953 0.15234 1.0625 0.16016 1.6289 0 0.0625-0.003906 0.12891-0.011719 0.19531-0.097656 0.75-0.34766 1.5117-0.68359 2.2461 7.918 3.1797 13.723 8.9414 17.27 17.145zm-17.645-47.402c0.10547 2.5703 1.4375 5.2383 1.9922 5.7188 4.2695 1.668 3.1133 6.9648 2.418 10.141-0.003907 0.015625-0.007813 0.03125-0.011719 0.046875 0.13281-0.24219 0.27344-0.52344 0.41797-0.84766 2.3633-5.3672 2.6172-15.594 2.043-17.004-0.82031-1.0273-1.8359-1.6016-3.0195-1.707-1.2891-0.11719-2.4727 0.36719-3.0273 0.86328-0.74219 0.66016-0.85156 1.8789-0.8125 2.7891zm-34.535 5.7188c0.55078-0.48047 1.8828-3.1523 1.9922-5.7188 0.039062-0.90625-0.070313-2.1289-0.8125-2.7891-0.55469-0.49609-1.7383-0.98047-3.0273-0.86328-1.1836 0.10547-2.1992 0.67969-3.0195 1.707-0.57812 1.4102-0.32031 11.641 2.043 17.004 0.14453 0.32422 0.28125 0.60547 0.41797 0.84766l-0.011718-0.046875c-0.69531-3.1758-1.8516-8.4766 2.418-10.141zm2.7891 18.262c0.97656-1.8672 2.707-3.2031 5.0625-3.8477 2.3125-3.1055 6.2617-5.2617 10.895-2.6836 4.6289-2.5781 8.5781-0.42578 10.895 2.6836 2.0117 0.55078 3.5703 1.6055 4.5859 3.0664 0.75391-1.2812 1.3555-2.6953 1.8242-4.2734-0.31641-0.85156-0.058594-2.0352 0.28906-3.6367 0.75-3.4375 1.207-6.3477-0.83203-7.1055-1.6562-0.61719-3.0039-4.0742-3.4297-6.332-0.55078-2.918-0.023437-5.2734 1.4922-6.6289 0.039062-0.035156 0.082031-0.066406 0.12109-0.10156-3.5703-4.9727-9.2461-7.9023-15.426-7.9023-6.1797 0-11.855 2.9297-15.426 7.9023 0.039062 0.035156 0.082031 0.066406 0.12109 0.10156 1.5156 1.3555 2.043 3.7109 1.4922 6.6289-0.42578 2.2578-1.7734 5.7148-3.4297 6.332-2.0391 0.75781-1.582 3.668-0.83203 7.1055 0.35156 1.6055 0.60938 2.793 0.28906 3.6445 0.55859 1.8984 1.3203 3.5664 2.3086 5.0469zm24.586 8.3984c0.60547-0.42188 1.375-0.53125 2.1133-0.30078 0.28516 0.089844 0.55078 0.22656 0.79687 0.40234 1.0664-1.2812 2.4062-3.1914 2.6523-4.7266-0.074218-2.7812-1.5508-4.5117-4.3906-5.1445-0.51562-0.11719-0.76172-0.47266-0.85156-0.60547-1.2891-1.8711-4.0742-4.6055-8.2227-1.8789-0.44531 0.29297-1.0195 0.29297-1.4648 0-4.1445-2.7227-6.9297 0.007813-8.2227 1.8789-0.09375 0.13281-0.33984 0.49219-0.84766 0.60547-2.8438 0.63281-4.3203 2.3672-4.3945 5.1445 0.089844 0.57812 0.33594 1.207 0.66406 1.832 0.015624 0.027344 0.03125 0.054688 0.042968 0.082032 0.54297 1.0195 1.293 2.0352 1.9453 2.8164 0.24219-0.17578 0.50781-0.3125 0.79688-0.40234 0.25391-0.078125 0.51172-0.11719 0.76562-0.11719 0.48047 0 0.94922 0.14062 1.3477 0.41797 4.7617 3.3164 12.512 3.3164 17.27-0.003907zm-18.844 2.6406v0.003906c-0.15625 0.42578-0.51953 0.74609-0.96484 0.84375-0.44531 0.097657-0.90625-0.039062-1.2305-0.35937-0.25-0.25-1.6797-1.7109-2.8594-3.5859-0.035157 0.015625-0.070313 0.027344-0.10547 0.042969 0.28125 3.6406 1.1328 7.3164 2.5859 11.145 1.4414-1.918 3.1328-2.7305 5.0078-3.2812-1.1953-1.6133-1.8516-3.1172-2.4336-4.8086zm3.3945 1.2891c0.53516 1.0898 1.2383 2.125 2.3438 3.3047 2.1172 1.7383 3.7148 3.6719 4.8477 5.8711 0.17969-0.15234 0.36719-0.30469 0.55078-0.45312 0.62891-1.7031 1.3984-3.2617 2.3008-4.6406 0.042969-0.066406 0.09375-0.12891 0.14844-0.1875 1.2109-1.2773 1.9492-2.3945 2.5039-3.5703-1.8281 0.57812-3.8242 0.88281-5.8828 0.88281-2.4102 0-4.7383-0.42188-6.8125-1.207zm5.5469 14.508 3.8438 6.9766 10.004-3.1719c0.66406-2.2109 0.48047-4.4805-0.53516-6.4531-0.91797-1.7852-2.4297-3.1094-4.043-3.5469-0.98047-0.26562-2.8555 0.55078-5.0117 2.1914-1.6641 1.2617-3.2695 2.8359-4.2578 4.0039zm15.527-17.453c-0.875 1.1445-1.6719 1.9609-1.8516 2.1406-0.32031 0.32031-0.78516 0.45703-1.2305 0.35938s-0.80859-0.41406-0.96484-0.84375c-0.070312-0.1875-0.14844-0.29688-0.20312-0.35156-0.21875 0.14844-0.44922 0.28906-0.67969 0.42969-0.60547 1.8281-1.2656 3.4766-2.5898 5.2539 1.8516 0.54687 3.5703 1.3711 5.0117 3.2812 1.3359-3.5195 2.1602-6.9102 2.5078-10.27zm-15.883 29.926c-4.082 2.5234-7.6133 4.4961-10.746 5.9961 0.054688 0.003907 0.11328 0.003907 0.16797 0.007813v-0.042969h3.4141c0.96875-0.058594 1.9492-0.14062 2.9492-0.22656 1.332-0.11328 2.6992-0.22656 4.0586-0.27734 0.035156-1.0742 0.066406-2.1562 0.09375-3.2148 0.019531-0.73828 0.042968-1.4883 0.0625-2.2422zm1.2852-4.6484-3.5469-6.5664c-6.5742 3.7148-11.812 5.4297-15.59 5.1016-0.69531-0.058594-1.2188-0.64062-1.2188-1.3281 0-0.039062 0.003907-0.078125 0.003907-0.11719 0.0625-0.73438 0.70703-1.2773 1.4453-1.2109 3.3906 0.29688 8.6484-1.5859 15.203-5.4375 0.27344-0.16016 0.59375-0.21875 0.90234-0.16406 0.39062-0.44531 0.89062-0.98047 1.4688-1.5586-0.90625-1.9922-2.2422-3.7461-4.0586-5.3242-2.793 0.67188-4.5508 1.2852-6.0469 4.6211-0.21484 0.48047-0.69141 0.78906-1.2188 0.78906h-0.003906c-0.52734-0.003907-1.0039-0.31641-1.2148-0.79688-2.0508-4.6797-3.2773-9.1328-3.7305-13.547-7.3086 3.668-12.812 10-14.758 17.223-2.0195 7.4961-1.0234 14.398 2.5312 17.582 2.8555 2.5547 7.3008 2.7695 12.867 0.625 1.1914-0.46484 2.4414-1.0117 3.7734-1.6445 3.6758-1.7617 8.0117-4.2422 13.117-7.5078 0.027344-0.25391 0.050781-0.49609 0.074219-0.73828zm35.094 10.609c0.015625-12.969-3.2695-28.844-17.828-35.754-0.39844 4.0352-1.4453 8.0938-3.1758 12.332 0.24219 0.35547 0.46875 0.72656 0.66797 1.1172 1.4531 2.8242 1.6172 6.0938 0.46094 9.2031-0.14453 0.38281-0.45312 0.68359-0.84766 0.80469l-11.434 3.6289c-0.054688 0.050782-0.11328 0.097656-0.17578 0.14062-0.007813 0.003907-0.015625 0.007813-0.023438 0.015625-0.27734 0.17969-0.55078 0.35938-0.82812 0.53516-0.003906 0.003907-0.011718 0.007813-0.015625 0.011719-0.15234 0.097657-0.30078 0.19141-0.45312 0.28906-0.050781 1.3438-0.085937 2.707-0.12109 4.0312-0.03125 1.1992-0.0625 2.4258-0.10547 3.6484h20.215l-0.007813-10.707c0-0.73828 0.59766-1.332 1.332-1.332 0.73828 0 1.332 0.59766 1.332 1.332l0.003906 10.703zm-32.113-42.707c0.050781 0.015625 0.19922 0.125 0.29688 0.19922 0.22656 0.16797 0.50781 0.37891 0.88672 0.52344 0.15625 0.0625 0.32031 0.089844 0.48047 0.089844 0.53516 0 1.0391-0.32422 1.2461-0.85156 0.26562-0.6875-0.074219-1.457-0.76172-1.7227-0.046875-0.019531-0.16797-0.10938-0.25391-0.17578-0.54297-0.40625-1.6719-1.25-3.5508-0.26562-0.28516 0.14844-0.57812 0.21094-0.98047 0.21094s-0.69531-0.0625-0.98047-0.21094c-1.8789-0.98047-3.0078-0.13672-3.5508 0.26562-0.085938 0.066406-0.20703 0.15625-0.25391 0.17578-0.68359 0.26562-1.0273 1.0352-0.76172 1.7227s1.0391 1.0273 1.7227 0.76172c0.37891-0.14453 0.66016-0.35547 0.88672-0.52344 0.097656-0.074218 0.24609-0.18359 0.28906-0.19531 0 0 0.12891-0.003906 0.4375 0.15625 0.88281 0.46094 1.6836 0.51172 2.2109 0.51172s1.332-0.054688 2.2109-0.51172c0.30078-0.16016 0.42578-0.15625 0.42578-0.16016zm-12.934-11.188c0.26172 0.26172 0.60156 0.39062 0.94141 0.39062 0.33984 0 0.68359-0.12891 0.94141-0.39062l2.0898-2.0898c0.25-0.25 0.39062-0.58984 0.39062-0.94141 0-0.35547-0.14062-0.69141-0.39062-0.94141l-2.0898-2.0898c-0.51953-0.51953-1.3672-0.51953-1.8867 0-0.51953 0.51953-0.51953 1.3633 0 1.8867l1.1445 1.1445-1.1445 1.1445c-0.51953 0.51953-0.51953 1.3633 0.003906 1.8867zm61.586 32.566-4.5469-0.35156 1.2227-2.0547c0.24609-0.41406 0.25-0.92578 0.011718-1.3398-0.23828-0.41406-0.67969-0.67188-1.1562-0.67188l-6.4336 0.007813c-0.73438 0-1.332 0.59766-1.332 1.3359 0 0.73438 0.59766 1.332 1.332 1.332l4.0898-0.003906-1.1172 1.8828c-0.23438 0.39844-0.25 0.88672-0.035156 1.293 0.21094 0.41016 0.62109 0.67969 1.082 0.71484l6.6875 0.51562c0.035156 0.003906 0.070312 0.003906 0.10547 0.003906 0.69141 0 1.2734-0.53125 1.3281-1.2305 0.046875-0.73828-0.50391-1.3789-1.2383-1.4336z"/>
</svg>