<svg fill="#0057B8" xmlns="http://www.w3.org/2000/svg" version="1.1" viewBox="-5.0 -10.0 110.0 135.0">
 <path d="m72.691 54.906c-0.17969 0-0.35938 0.007812-0.53906 0.011719 0.10156-8.7305-4.6055-14.273-8.0469-18.324-1.5-1.7617-2.9219-3.4375-3.0898-4.5586 1.8516-0.63672 5.0391 0.51562 9.2773 3.3594 0.30859 0.20703 0.68359 0.28906 1.0508 0.23047 3.0898-0.50781 5.543-2.9258 6.1055-6.0195 0.074219-0.41016-0.03125-0.83203-0.28906-1.1602-5.0781-6.4531-10.441-10.121-15.988-11.012 0.11328-4.0391-1.4414-7.2305-4.6523-9.4844-0.32422-0.23047-0.72656-0.31641-1.1172-0.23828-6.7344 1.3125-12.68 3.2383-17.836 5.7695-3.1758-4.9727-7.9375-7.4766-9.9453-8.3555-0.26953-0.11719-0.57031-0.15234-0.85938-0.09375-3.5234 0.67578-8.1094 4.9844-8.0391 7.5547 0.011719 0.38281 0.17188 0.74609 0.44531 1.0117 3.1562 3.0391 5.0078 7.2383 4.5117 10.141-6.3906 7.0859-10.051 16.223-10.934 27.387-0.011719 0.22656 0 0.45312-0.007813 0.67969l-4.0078-0.003907c-0.80469 0-1.457 0.65234-1.457 1.457 0 0.80469 0.65234 1.457 1.457 1.457h4.0742c0.69922 10.301 6.1406 21.113 16.242 32.203 4.1641 5.2734 8.625 7.9922 13.258 8.0781 0.074218 0 0.15234 0.003906 0.22656 0.003906 4.6367 0 9.418-2.6523 14.23-7.8789 3.668 4.7812 9.4414 7.8789 15.926 7.8789 11.047 0 20.035-8.9883 20.035-20.031 0-11.066-8.9844-20.062-20.031-20.062zm-50.891-42.789c0.64844-1.1797 2.9727-3.4883 5.0859-4.125 3.2812 1.5391 6.1992 4.0195 8.0859 6.8516-3.1562 1.7695-5.9883 3.7891-8.4805 6.0625-0.52344-2.9531-2.2031-6.168-4.6914-8.7891zm20.559 79.965c-3.7305-0.070312-7.4492-2.4297-11.059-7.0117-0.023437-0.027343-0.046875-0.054687-0.070312-0.078124-9.6133-10.547-14.812-20.727-15.516-30.281h2.5898c0.46484 0 0.89844-0.21875 1.1719-0.59375l5.7656-7.8164 8.5 18.258c0.23437 0.50391 0.73437 0.83203 1.2891 0.84375h0.03125c0.54297 0 1.0391-0.30078 1.293-0.78125l5.1602-9.9102h3.8945c0.50391 0 0.96875-0.25781 1.2344-0.68359l3.6914-5.8828 3.1602 5.8047c0.25391 0.46875 0.74609 0.75781 1.2812 0.75781h12.02c0.80469 0 1.457-0.65234 1.457-1.457s-0.65234-1.457-1.457-1.457l-11.152 0.007812-3.9375-7.2305c-0.24609-0.45312-0.71875-0.74219-1.2344-0.75781-0.51953-0.019531-1.0039 0.24609-1.2773 0.68359l-4.5859 7.3086h-3.9727c-0.54297 0-1.0391 0.30078-1.293 0.78516l-4.207 8.0703-8.2852-17.805c-0.21875-0.46875-0.66406-0.78516-1.1758-0.83594-0.51172-0.054687-1.0117 0.17188-1.3164 0.58594l-6.7852 9.1992h-1.9297c0.003907-0.16797-0.003906-0.33984 0.003907-0.50781 0.83594-10.562 4.2031-19.105 10.164-25.703 0.20703-0.13281 0.375-0.3125 0.49609-0.53125 3.043-3.2383 6.7344-5.9961 11.086-8.2812 0.10156-0.027344 0.19922-0.066406 0.29297-0.11719 0.066406-0.039062 0.125-0.082031 0.1875-0.12891 4.9727-2.543 10.781-4.4883 17.453-5.8359 2.0117 1.6094 2.9766 3.7578 2.9336 6.5195-0.03125 0.003906-0.066407 0-0.097657 0-8.1719 0.19922-16.711 6.4766-25.379 18.656-0.46484 0.65625-0.3125 1.5664 0.34375 2.0312 0.65625 0.46875 1.5664 0.3125 2.0312-0.34375 8.1055-11.395 15.867-17.262 23.07-17.434 5.4961-0.15234 10.938 3.0859 16.191 9.5625-0.46484 1.418-1.6016 2.5234-3.0312 2.9375-5.4688-3.5664-9.4844-4.5234-12.266-2.9297-3.1055 1.7812-4.2617 6.2461-3.7461 14.473 0.050782 0.77344 0.6875 1.3672 1.4531 1.3672 0.03125 0 0.0625 0 0.09375-0.003906 0.80469-0.050781 1.4141-0.74219 1.3633-1.543-0.26562-4.2422-0.050781-7.3867 0.63281-9.4023 0.70312 1.2227 1.7695 2.4844 2.9648 3.8906 3.3281 3.9219 7.4766 8.7969 7.3555 16.508 0 0.070313-0.007813 0.14844-0.007813 0.21875-9.4141 1.6445-16.598 9.8711-16.598 19.75 0 3.4883 0.90234 6.7773 2.4805 9.6406-4.4766 5.043-8.75 7.5781-12.758 7.4844zm30.332-0.003906c-9.4492 0-17.141-7.6797-17.141-17.117 0-8.7539 6.5977-15.992 15.082-17.016h0.003907c0.11328 0 0.22266-0.015624 0.32812-0.039062 0.57031-0.058594 1.1445-0.089844 1.7266-0.089844 9.4375 0 17.117 7.6875 17.117 17.141 0 9.4414-7.6797 17.121-17.117 17.121zm1.457-26.676v14.207c0 0.80469-0.65234 1.457-1.457 1.457-0.80469 0-1.457-0.65234-1.457-1.457l-0.003906-14.207c0-0.80469 0.65234-1.457 1.457-1.457 0.80859 0 1.4609 0.65625 1.4609 1.457zm0 18.902v0.21484c0 0.80469-0.65234 1.457-1.457 1.457-0.80469 0-1.457-0.65234-1.457-1.457v-0.21484c0-0.80469 0.65234-1.457 1.457-1.457 0.80469 0 1.457 0.64844 1.457 1.457z"/>
</svg>