<svg fill="#fff" xmlns="http://www.w3.org/2000/svg" version="1.1" viewBox="-5.0 -10.0 110.0 135.0">
 <path d="m70.648 44.703c-2.4062-1.5898-4.0234-4.1367-4.4414-6.9922-0.50781-3.4453-1.0859-7.793-1.7031-12.398-0.91406-6.8242-1.8594-13.879-2.6953-19.078-0.58203-3.6133-3.6641-6.2344-7.3281-6.2344h-8.9609c-3.6641 0-6.7422 2.625-7.3281 6.2344-0.83594 5.1992-1.7812 12.254-2.6953 19.078-0.61719 4.6055-1.1953 8.9531-1.7031 12.398-0.41797 2.8516-2.0391 5.3984-4.4414 6.9922-6.6367 4.3867-13.73 11.777-13.73 19.359 0 8.9375 3.9844 14.062 10.938 14.062 1.6328 0 3.2422-0.47656 4.6875-1.1328v4.2578c0 1.9766-0.64844 3.2695-1.3984 4.7695-0.8125 1.6172-1.7266 3.457-1.7266 6.168 0 4.3086 3.5039 7.8125 7.8125 7.8125s7.8125-3.5039 7.8125-7.8125c0-2.7109-0.91797-4.5469-1.7266-6.168-0.75-1.5-1.3984-2.7969-1.3984-4.7695v-4.75c2.7188 1.7539 5.7656 3.1875 9.375 3.1875 4.957 0 8.5078-2.7578 11.648-5.1875 0.53906-0.42188 1.0781-0.83203 1.6094-1.2305 1.1758 1.0938 5.5703 4.8594 10.18 4.8594 6.9531 0 10.938-5.125 10.938-14.062 0-7.5859-7.0938-14.977-13.73-19.359zm-31.422 42.715c0.75 1.5 1.3984 2.7969 1.3984 4.7695 0 2.5859-2.1016 4.6875-4.6875 4.6875-2.582 0-4.6875-2.1016-4.6875-4.6875 0-1.9766 0.64844-3.2695 1.3984-4.7695 0.8125-1.6172 1.7266-3.457 1.7266-6.168v-6.0781c0.89062-0.625 1.6016-1.2227 2.0703-1.6367 0.26953 0.19531 0.53906 0.39453 0.8125 0.59375 0.082032 0.058594 0.16406 0.11719 0.24219 0.17969v6.9375c0 2.7109 0.91797 4.5469 1.7266 6.168zm40.18-15.371c-1.3008 1.9883-3.2539 2.9531-5.9688 2.9531-2.9375 0-6.0312-2.2891-7.4609-3.5 1.3516-0.71875 2.7695-1.1875 4.3359-1.1875 0.86328 0 1.5625-0.69922 1.5625-1.5625s-0.69922-1.5625-1.5625-1.5625c-4.3438 0-7.5156 2.4609-10.582 4.8438-3.0039 2.332-5.8438 4.5312-9.7305 4.5312-4.1484 0-7.5781-2.5156-10.898-4.9492-3.1016-2.2734-6.0312-4.4258-9.4141-4.4258-0.86328 0-1.5625 0.69922-1.5625 1.5625s0.69922 1.5625 1.5625 1.5625c1.3047 0 2.6641 0.57031 4.0703 1.4062-1.5234 1.25-4.4258 3.2812-7.1953 3.2812-2.7656 0-4.668-0.96875-5.9688-2.9531-1.2031-1.8438-1.8438-4.6016-1.8438-7.9805 0-6.3516 6.6406-12.992 12.328-16.754 3.1445-2.0781 5.2656-5.4141 5.8125-9.1406 0.50781-3.4609 1.0938-7.8203 1.7109-12.438 0.91016-6.8047 1.8516-13.836 2.6797-18.996 0.33594-2.0898 2.1172-3.6094 4.2422-3.6094h8.9609c2.1172 0 3.9023 1.5156 4.2422 3.6094 0.83203 5.1562 1.7734 12.191 2.6797 18.996 0.61719 4.6172 1.2031 8.9766 1.7109 12.438 0.54687 3.7305 2.6641 7.0625 5.8125 9.1406 5.6875 3.7578 12.328 10.402 12.328 16.754 0 3.3789-0.63672 6.1406-1.8438 7.9805z"/>
</svg>