<svg fill="#0057B8" xmlns="http://www.w3.org/2000/svg" viewBox="0 0 100 125" x="0px" y="0px"><g data-name="Layer 2"><path d="M34.552,47.968a1.5,1.5,0,0,0,1.639-1.347c.037-.376.292-3.724-2.02-5.633-1.551-1.279-3.748-1.509-6.527-.686a5.844,5.844,0,0,0-4.125,3.6c-1.57,4.313,2.189,10.181,2.593,10.79,1.7,2.782,3.519,4.19,5.409,4.19q.13,0,.261-.009c2.742-.188,4.14-3.206,4.29-3.55a1.5,1.5,0,0,0-2.745-1.209c-.24.533-1.014,1.719-1.752,1.766-.284.027-1.3-.13-2.931-2.8-.883-1.333-3.2-5.692-2.306-8.153A2.839,2.839,0,0,1,28.5,43.179c1.211-.36,2.845-.632,3.759.117a3.932,3.932,0,0,1,.951,3.032A1.5,1.5,0,0,0,34.552,47.968Z"/><path d="M17.663,85.472c5.537-5.408,5.761-12.752,5.263-17.157,1.426-1.183,4.513-4,5.422-6.841a1.5,1.5,0,1,0-2.858-.912A12.792,12.792,0,0,1,22.1,65.035a9.082,9.082,0,0,0-1.84-2.693C8.589,50.631,5.945,39.051,12.405,27.925A30,30,0,0,1,36.1,13.438a96.1,96.1,0,0,1,12.989-.1c.087.005,8.753.474,13.06,1.879a2.048,2.048,0,0,1,1.469,2.051.837.837,0,0,1-.038.235l-.064.082c-.677.882-.749.974-2.7,1.23a42.058,42.058,0,0,0-6.913,1.2,6.735,6.735,0,0,1-.678.226c-8.089,2.087-7.544,7.042-7.185,8.511a10.254,10.254,0,0,1,.307,3.771c-.449,3.437-2.328,3.718-2.945,3.811-5.291.794-6.689,4.946-6.689,7.03a1.5,1.5,0,0,0,3,0c0-.14.047-3.45,4.135-4.063,3.052-.458,5-2.728,5.473-6.39a13.154,13.154,0,0,0-.367-4.872c-.685-2.8,2.353-4.205,5.021-4.893a9.908,9.908,0,0,0,.97-.318,58,58,0,0,1,6.261-1.034c2.925-.384,3.576-.926,4.692-2.377l.065-.084a3.378,3.378,0,0,0,.646-1.8,5.066,5.066,0,0,0-3.527-5.167c-4.681-1.526-13.461-2-13.8-2.021a97.041,97.041,0,0,0-13.421.1A33,33,0,0,0,9.812,26.419c-4.97,8.558-7.559,22.1,8.328,38.041a6.046,6.046,0,0,1,1.706,3.42c.534,3.686.688,10.6-4.279,15.445a1.5,1.5,0,0,0,2.1,2.147Z"/><path d="M66.332,39.752a1.217,1.217,0,0,1-.229-.724l.077-5.143a1.357,1.357,0,0,0-.005-.142c-.021-.26-.555-6.4-4.844-9.565a1.5,1.5,0,1,0-1.781,2.414c2.99,2.207,3.568,6.765,3.629,7.331l-.076,5.06a4.235,4.235,0,0,0,.8,2.533l8.11,11.149a.1.1,0,0,1,.014.111.1.1,0,0,1-.085.074l-4.194.9a2.942,2.942,0,0,0-2.165,3.829l.1,1.084-5.323.291a1.5,1.5,0,0,0,.081,3l.083,0,5.916-.324a2.425,2.425,0,0,0,2.284-2.635l-.167-1.89a1.169,1.169,0,0,0-.174-.417l4.194-.9A3.118,3.118,0,0,0,74.441,50.9Z"/><path d="M66.726,70.365a2.183,2.183,0,0,0-.7-3.575l-3.194-1.319a1.5,1.5,0,0,0-1.145,2.773l2.056.849-.569.563a3.423,3.423,0,0,0-.8,3.628l.807,2.172a.716.716,0,0,1-.3.863,5.123,5.123,0,0,1-2.7.666A59.885,59.885,0,0,1,46.607,75.44c-7.661-2.211-8.8-10.563-8.848-10.918a1.5,1.5,0,0,0-2.978.366c.053.434,1.4,10.667,11,13.436.056.016.458.128,1.174.285a23.919,23.919,0,0,0-.427,10.031,1.5,1.5,0,0,0,1.467,1.2,1.52,1.52,0,0,0,.306-.031,1.5,1.5,0,0,0,1.165-1.773,21.193,21.193,0,0,1,.449-8.881,77.737,77.737,0,0,0,10.193.834l.182,0a8.159,8.159,0,0,0,4.087-1.07,3.7,3.7,0,0,0,1.614-4.506l-.806-2.172a.421.421,0,0,1,.1-.447Z"/><path d="M82.723,60.742a1.5,1.5,0,0,0-1.637-1.349l-8.455.811a1.5,1.5,0,0,0,.141,2.993,1.441,1.441,0,0,0,.146-.007l8.455-.811A1.5,1.5,0,0,0,82.723,60.742Z"/><path d="M72.661,66.692a1.5,1.5,0,1,0-1.7,2.477l6.993,4.786a1.5,1.5,0,1,0,1.695-2.476Z"/><path d="M90.967,62.484a6.812,6.812,0,0,0,.449-2.4,6.9,6.9,0,0,0-11.487-5.14,1.5,1.5,0,0,0,2,2.241,3.9,3.9,0,0,1,6.491,2.9,3.82,3.82,0,0,1-.227,1.283,6.92,6.92,0,0,0-3.736.442,1.5,1.5,0,0,0,1.156,2.768,3.895,3.895,0,1,1,1.545,7.49,1.615,1.615,0,0,0-.173-.014,3.864,3.864,0,0,1-2.961-1.521,1.5,1.5,0,0,0-2.383,1.824,6.843,6.843,0,0,0,3.975,2.526V74.9a3.9,3.9,0,0,1-7.647,1.056,1.5,1.5,0,1,0-2.889.811A6.9,6.9,0,0,0,88.613,74.9v-.008a6.872,6.872,0,0,0,2.354-12.41Z"/></g></svg>